<?xml version="1.0" encoding="UTF-8"?>
<svg xmlns="http://www.w3.org/2000/svg" width="100%" height="280" viewBox="0 0 900 280" style="background-color: #121824; border-radius: 8px;">
  <text x="40" y="25" fill="#E0E6ED" font-size="14" font-weight="bold" font-family="Segoe UI, sans-serif">🌡️⚡ Environmental &amp; Power Profile (Temperature, Dew Point, Humidity &amp; Power Draw)</text>
  <line x1="60.0" y1="45" x2="60.0" y2="215" stroke="#1E293B" stroke-width="1" stroke-dasharray="3,3" />
  <text x="60.0" y="233" fill="#94A3B8" font-size="11" font-family="Segoe UI, sans-serif" text-anchor="middle">19:57</text>
  <line x1="214.0" y1="45" x2="214.0" y2="215" stroke="#1E293B" stroke-width="1" stroke-dasharray="3,3" />
  <text x="214.0" y="233" fill="#94A3B8" font-size="11" font-family="Segoe UI, sans-serif" text-anchor="middle">21:52</text>
  <line x1="368.0" y1="45" x2="368.0" y2="215" stroke="#1E293B" stroke-width="1" stroke-dasharray="3,3" />
  <text x="368.0" y="233" fill="#94A3B8" font-size="11" font-family="Segoe UI, sans-serif" text-anchor="middle">23:47</text>
  <line x1="522.0" y1="45" x2="522.0" y2="215" stroke="#1E293B" stroke-width="1" stroke-dasharray="3,3" />
  <text x="522.0" y="233" fill="#94A3B8" font-size="11" font-family="Segoe UI, sans-serif" text-anchor="middle">01:42</text>
  <line x1="676.0" y1="45" x2="676.0" y2="215" stroke="#1E293B" stroke-width="1" stroke-dasharray="3,3" />
  <text x="676.0" y="233" fill="#94A3B8" font-size="11" font-family="Segoe UI, sans-serif" text-anchor="middle">03:37</text>
  <line x1="830.0" y1="45" x2="830.0" y2="215" stroke="#1E293B" stroke-width="1" stroke-dasharray="3,3" />
  <text x="830.0" y="233" fill="#94A3B8" font-size="11" font-family="Segoe UI, sans-serif" text-anchor="middle">05:31</text>
  <circle cx="671.7" cy="120.6" r="3.5" fill="#EF4444" opacity="0.85" />
  <circle cx="693.2" cy="126.2" r="3.5" fill="#EF4444" opacity="0.85" />
  <circle cx="703.9" cy="128.1" r="3.5" fill="#EF4444" opacity="0.85" />
  <circle cx="714.6" cy="131.9" r="3.5" fill="#EF4444" opacity="0.85" />
  <circle cx="725.4" cy="131.9" r="3.5" fill="#EF4444" opacity="0.85" />
  <circle cx="736.1" cy="131.9" r="3.5" fill="#EF4444" opacity="0.85" />
  <circle cx="746.8" cy="131.9" r="3.5" fill="#EF4444" opacity="0.85" />
  <circle cx="757.6" cy="135.7" r="3.5" fill="#EF4444" opacity="0.85" />
  <circle cx="768.3" cy="141.3" r="3.5" fill="#EF4444" opacity="0.85" />
  <circle cx="779.0" cy="141.3" r="3.5" fill="#EF4444" opacity="0.85" />
  <circle cx="789.8" cy="141.3" r="3.5" fill="#EF4444" opacity="0.85" />
  <circle cx="800.5" cy="143.2" r="3.5" fill="#EF4444" opacity="0.85" />
  <circle cx="811.2" cy="143.2" r="3.5" fill="#EF4444" opacity="0.85" />
  <circle cx="822.0" cy="143.2" r="3.5" fill="#EF4444" opacity="0.85" />
  <circle cx="830.0" cy="147.0" r="3.5" fill="#EF4444" opacity="0.85" />
  <polyline points="60.0,174.9 70.7,163.5 81.5,166.7 92.2,163.8 102.9,165.7 113.7,151.9 124.4,166.9 135.1,143.4 145.9,155.5 156.6,155.5 167.3,160.4 178.0,162.5 188.8,157.9 199.5,157.4 210.2,157.0 221.0,164.7 231.7,156.5 242.4,163.3 253.2,155.7 263.9,158.2 274.6,155.0 285.4,148.9 296.1,159.9 306.8,164.5 317.6,158.2 328.3,158.9 339.0,159.6 349.8,144.8 360.5,153.6 371.2,150.4 382.0,154.5 392.7,161.6 403.4,154.8 414.1,149.4 424.9,154.3 435.6,171.5 446.3,158.2 457.1,161.8 467.8,153.8 478.5,172.0 489.3,160.6 500.0,150.9 510.7,150.9 521.5,152.8 532.2,154.3 542.9,160.6 553.7,162.3 564.4,153.6 575.1,162.1 585.9,156.0 596.6,168.6 607.3,167.9 618.0,159.9 628.8,173.0 639.5,151.4 650.2,167.4 661.0,159.6 671.7,165.5 682.4,166.2 693.2,157.7 703.9,159.1 714.6,167.2 725.4,158.4 736.1,162.3 746.8,163.3 757.6,159.6 768.3,153.8 779.0,162.5 789.8,153.6 800.5,152.3 811.2,165.9 822.0,150.2 830.0,172.8" fill="none" stroke="#FACC15" stroke-width="2.0" stroke-dasharray="6,2,2,2" />
  <polyline points="60.0,81.7 70.7,80.9 81.5,81.0 92.2,80.7 102.9,81.7 113.7,82.2 124.4,80.9 135.1,80.7 145.9,80.2 156.6,79.5 167.3,80.5 178.0,80.5 188.8,79.5 199.5,78.8 210.2,78.2 221.0,76.8 231.7,76.3 242.4,76.5 253.2,77.1 263.9,75.4 274.6,74.9 285.4,74.9 296.1,75.4 306.8,74.1 317.6,73.9 328.3,73.7 339.0,73.6 349.8,73.7 360.5,72.9 371.2,73.2 382.0,73.7 392.7,73.6 403.4,73.1 414.1,72.2 424.9,71.5 435.6,71.9 446.3,70.7 457.1,70.7 467.8,73.9 478.5,73.2 489.3,74.1 500.0,72.7 510.7,71.2 521.5,70.8 532.2,71.9 542.9,71.7 553.7,70.5 564.4,71.2 575.1,72.4 585.9,72.7 596.6,72.0 607.3,72.4 618.0,71.3 628.8,71.3 639.5,70.5 650.2,70.3 661.0,69.3 671.7,68.1 682.4,68.1 693.2,67.4 703.9,67.1 714.6,66.4 725.4,66.1 736.1,65.6 746.8,65.6 757.6,64.4 768.3,62.8 779.0,63.2 789.8,63.7 800.5,63.7 811.2,64.0 822.0,64.2 830.0,63.0" fill="none" stroke="#818CF8" stroke-width="2.0" stroke-dasharray="4,3" />
  <polyline points="60.0,162.1 70.7,156.4 81.5,156.4 92.2,160.2 102.9,160.2 113.7,164.0 124.4,164.0 135.1,162.1 145.9,158.3 156.6,160.2 167.3,164.0 178.0,164.0 188.8,158.3 199.5,160.2 210.2,162.1 221.0,156.4 231.7,152.7 242.4,154.6 253.2,156.4 263.9,152.7 274.6,152.7 285.4,150.8 296.1,150.8 306.8,152.7 317.6,154.6 328.3,152.7 339.0,152.7 349.8,152.7 360.5,156.4 371.2,158.3 382.0,156.4 392.7,154.6 403.4,156.4 414.1,156.4 424.9,156.4 435.6,154.6 446.3,158.3 457.1,156.4 467.8,154.6 478.5,156.4 489.3,158.3 500.0,158.3 510.7,156.4 521.5,158.3 532.2,156.4 542.9,160.2 553.7,158.3 564.4,156.4 575.1,160.2 585.9,160.2 596.6,160.2 607.3,162.1 618.0,162.1 628.8,165.9 639.5,165.9 650.2,165.9 661.0,164.0 671.7,165.9 682.4,169.7 693.2,171.6 703.9,171.6 714.6,175.3 725.4,173.4 736.1,173.4 746.8,173.4 757.6,173.4 768.3,175.3 779.0,177.2 789.8,177.2 800.5,179.1 811.2,181.0 822.0,181.0 830.0,182.9" fill="none" stroke="#06B6D4" stroke-width="2.0" />
  <polyline points="60.0,84.7 70.7,80.9 81.5,80.9 92.2,84.7 102.9,82.8 113.7,84.7 124.4,88.4 135.1,86.6 145.9,84.7 156.6,88.4 167.3,88.4 178.0,88.4 188.8,86.6 199.5,88.4 210.2,92.2 221.0,90.3 231.7,88.4 242.4,88.4 253.2,88.4 263.9,90.3 274.6,90.3 285.4,88.4 296.1,88.4 306.8,92.2 317.6,94.1 328.3,94.1 339.0,94.1 349.8,94.1 360.5,99.8 371.2,99.8 382.0,97.9 392.7,96.0 403.4,99.8 414.1,99.8 424.9,101.7 435.6,99.8 446.3,105.4 457.1,103.6 467.8,94.1 478.5,97.9 489.3,96.0 500.0,101.7 510.7,103.6 521.5,105.4 532.2,101.7 542.9,105.4 553.7,107.3 564.4,103.6 575.1,103.6 585.9,103.6 596.6,105.4 607.3,105.4 618.0,109.2 628.8,113.0 639.5,114.9 650.2,114.9 661.0,114.9 671.7,120.6 682.4,122.4 693.2,126.2 703.9,128.1 714.6,131.9 725.4,131.9 736.1,131.9 746.8,131.9 757.6,135.7 768.3,141.3 779.0,141.3 789.8,141.3 800.5,143.2 811.2,143.2 822.0,143.2 830.0,147.0" fill="none" stroke="#F59E0B" stroke-width="2.5" />
  <text x="52" y="55" fill="#F59E0B" font-size="11" font-weight="bold" font-family="Segoe UI, sans-serif" text-anchor="end">30.0°C</text>
  <text x="52" y="215" fill="#F59E0B" font-size="11" font-weight="bold" font-family="Segoe UI, sans-serif" text-anchor="end">21.0°C</text>
  <text x="838" y="55" fill="#818CF8" font-size="11" font-weight="bold" font-family="Segoe UI, sans-serif" text-anchor="start">100% / 100W</text>
  <text x="838" y="215" fill="#818CF8" font-size="11" font-weight="bold" font-family="Segoe UI, sans-serif" text-anchor="start">0% / 0W</text>
  <rect x="20" y="258" width="12" height="12" fill="#F59E0B" rx="2" />
  <text x="38" y="268" fill="#A0AEC0" font-size="12" font-family="Segoe UI, sans-serif">Ambient Temp (°C)</text>
  <rect x="180" y="258" width="12" height="12" fill="#06B6D4" rx="2" />
  <text x="198" y="268" fill="#A0AEC0" font-size="12" font-family="Segoe UI, sans-serif">Dew Point (°C)</text>
  <rect x="330" y="258" width="12" height="12" fill="#818CF8" rx="2" />
  <text x="348" y="268" fill="#A0AEC0" font-size="12" font-family="Segoe UI, sans-serif">Humidity (%)</text>
  <rect x="480" y="258" width="12" height="12" fill="#FACC15" rx="2" />
  <text x="498" y="268" fill="#A0AEC0" font-size="12" font-family="Segoe UI, sans-serif">Power (Watts)</text>
  <rect x="660" y="258" width="12" height="12" fill="#EF4444" rx="2" />
  <text x="678" y="268" fill="#A0AEC0" font-size="12" font-family="Segoe UI, sans-serif">Dew Risk (&lt;2.5°C)</text>
</svg>